<svg xmlns="http://www.w3.org/2000/svg" xmlns:xlink="http://www.w3.org/1999/xlink" width="80" height="20" viewBox="0 0 80 20">
  <defs>
    <clipPath id="clip-RovebusLogo_white">
      <rect width="80" height="20"/>
    </clipPath>
  </defs>
  <g id="RovebusLogo_white" data-name="RovebusLogo – white" clip-path="url(#clip-RovebusLogo_white)">
    <path id="Path_325" data-name="Path 325" d="M-186.07-97.537a.583.583,0,0,0,.48.36c.067,0,.107,0,.12-.027a.151.151,0,0,0,.107-.2.18.18,0,0,0-.2-.12h-.027c-.013,0-.08.027-.2-.16a3.3,3.3,0,0,1-.2-1.361,2.265,2.265,0,0,0-1.214-2,4.034,4.034,0,0,0-.48-.24,2.569,2.569,0,0,0,1.867-2.481,2.6,2.6,0,0,0-2.6-2.6h-2.734a.177.177,0,0,0-.173.173v8.99a.177.177,0,0,0,.173.173.165.165,0,0,0,.16-.173v-3.975h2.534a1.942,1.942,0,0,1,.347.08,3.383,3.383,0,0,1,1.12.614,1.857,1.857,0,0,1,.667,1.441A3.023,3.023,0,0,0-186.07-97.537Zm-4.922-3.988v-4.508h2.574a2.263,2.263,0,0,1,2.254,2.268,2.234,2.234,0,0,1-2.228,2.241h-2.6Zm7.55-.16a4.689,4.689,0,0,0,4.548,4.829,4.708,4.708,0,0,0,4.562-4.829,4.7,4.7,0,0,0-4.562-4.815A4.685,4.685,0,0,0-183.442-101.685Zm.36,0a4.339,4.339,0,0,1,4.188-4.468,4.357,4.357,0,0,1,4.188,4.468,4.383,4.383,0,0,1-4.188,4.468A4.365,4.365,0,0,1-183.082-101.685Zm14.125,4.642a.041.041,0,0,1,.027.013h.04a.08.08,0,0,0,.053-.013h.013a.12.12,0,0,0,.08-.08.013.013,0,0,0,.013-.013l3.775-8.977a.162.162,0,0,0-.093-.213.157.157,0,0,0-.213.08l-3.628,8.6-3.615-8.6a.192.192,0,0,0-.24-.08.157.157,0,0,0-.08.213l3.775,8.977a.133.133,0,0,0,.053.067C-168.983-97.056-168.97-97.043-168.956-97.043Zm6.536.013h4.935a.165.165,0,0,0,.16-.173.154.154,0,0,0-.16-.16h-4.8v-4.175h4.228a.158.158,0,0,0,.16-.173.162.162,0,0,0-.16-.16h-4.228v-4.162h4.8a.154.154,0,0,0,.16-.16.165.165,0,0,0-.16-.173h-4.975a.173.173,0,0,0-.16.173v8.99a.158.158,0,0,0,.16.173h.04Z" transform="translate(195.627 112.105)" fill="#fff"/>
    <g id="Group_53" data-name="Group 53" transform="translate(40.989 4.032)">
      <path id="Subtraction_8" data-name="Subtraction 8" d="M5.116,12.389A5.121,5.121,0,0,1,0,7.275V.973A.962.962,0,0,1,.973,0a.984.984,0,0,1,.992.973c0,.318.01.632.03.933a.372.372,0,0,0-.135.287v.665H1.293a.514.514,0,0,0-.513.514V3.5H.6a.146.146,0,0,0-.145.145v1.5A.145.145,0,0,0,.6,5.294h.636a.145.145,0,0,0,.15-.144v-1.5a.145.145,0,0,0-.144-.15H1.059v-.13a.234.234,0,0,1,.233-.233H1.86v6.3a.374.374,0,0,0,.373.373h.285v.472a.245.245,0,0,0,.245.245H3.4a.246.246,0,0,0,.252-.245V9.813H6.516v.472a.245.245,0,0,0,.245.245H7.4a.246.246,0,0,0,.252-.245V9.813h.285a.374.374,0,0,0,.375-.373v-6.3h.566a.234.234,0,0,1,.233.233V3.5H8.927a.145.145,0,0,0-.144.145v1.5a.144.144,0,0,0,.144.144h.637a.145.145,0,0,0,.15-.144v-1.5a.146.146,0,0,0-.145-.15h-.18v-.13a.514.514,0,0,0-.513-.514H8.309V2.193a.369.369,0,0,0-.077-.227c.022-.318.034-.652.034-.993a.982.982,0,0,1,1.964,0v6.3A5.12,5.12,0,0,1,5.116,12.389Z" transform="translate(10.531 0.014)" fill="#fff"/>
      <path id="Path_262" data-name="Path 262" d="M-185.727-127.446c.018,0,.018-.018.053-.018a.017.017,0,0,0,.018.018h3.133a3.8,3.8,0,0,0,3.788-3.805,3.809,3.809,0,0,0-1.788-3.2,3.332,3.332,0,0,0,.673-2.018,3.361,3.361,0,0,0-3.363-3.363h-2.513a.971.971,0,0,0-.973.973v10.442A.982.982,0,0,0-185.727-127.446Zm.991-10.425h1.522a1.39,1.39,0,0,1,1.4,1.4,1.42,1.42,0,0,1-1.4,1.434h-1.522Zm0,4.8h2.212a1.832,1.832,0,0,1,1.823,1.823,1.836,1.836,0,0,1-1.823,1.841h-2.212Z" transform="translate(186.7 140.189)" fill="#fff"/>
      <path id="Path_261" data-name="Path 261" d="M99.962-133.044a7.63,7.63,0,0,0,4.531,1.77,5.535,5.535,0,0,0,3.274-1.009,3.425,3.425,0,0,0,1.522-2.743,2.87,2.87,0,0,0-.425-1.5,4.135,4.135,0,0,0-1.77-1.469,10.413,10.413,0,0,0-2.442-.743h-.035a6.1,6.1,0,0,1-2.212-.779,1.7,1.7,0,0,1-.478-.46.86.86,0,0,1-.124-.5,1.408,1.408,0,0,1,.673-1.115,3.381,3.381,0,0,1,1.982-.6,5.135,5.135,0,0,1,2.85,1.133.894.894,0,0,0,1.257-.265.911.911,0,0,0-.248-1.257A6.933,6.933,0,0,0,104.457-144a5.233,5.233,0,0,0-3.062.938,3.27,3.27,0,0,0-1.416,2.584,2.717,2.717,0,0,0,.407,1.451,3.807,3.807,0,0,0,1.646,1.381,9.577,9.577,0,0,0,2.283.69h.035a7.086,7.086,0,0,1,2.425.832,1.669,1.669,0,0,1,.531.531,1.011,1.011,0,0,1,.159.566,1.593,1.593,0,0,1-.761,1.274,3.814,3.814,0,0,1-2.212.655,5.772,5.772,0,0,1-3.381-1.363.923.923,0,0,0-1.292.124A.942.942,0,0,0,99.962-133.044Z" transform="translate(-75.289 144)" fill="#fff"/>
    </g>
    <g id="Rectangle_40" data-name="Rectangle 40" fill="none" stroke="#fff" stroke-width="1">
      <rect width="80" height="20" stroke="none"/>
      <rect x="0.5" y="0.5" width="79" height="19" fill="none"/>
    </g>
  </g>
</svg>
