<svg xmlns="http://www.w3.org/2000/svg" width="80" height="20">
  <defs>
    <clipPath id="a">
      <path d="M0 0h80v20H0z"/>
    </clipPath>
  </defs>
  <g clip-path="url(#a)">
    <path fill="#343434" d="M9.56 14.57a.58.58 0 0 0 .48.36c.06 0 .1 0 .12-.03a.15.15 0 0 0 .1-.2.18.18 0 0 0-.2-.12h-.02c-.02 0-.08.03-.2-.16a3.3 3.3 0 0 1-.2-1.36 2.27 2.27 0 0 0-1.22-2 4.03 4.03 0 0 0-.48-.24 2.57 2.57 0 0 0 1.87-2.48 2.6 2.6 0 0 0-2.6-2.6H4.48a.18.18 0 0 0-.18.17v9a.18.18 0 0 0 .18.16.17.17 0 0 0 .16-.17v-3.97h2.53a1.94 1.94 0 0 1 .35.08 3.38 3.38 0 0 1 1.12.61 1.86 1.86 0 0 1 .66 1.44 3.02 3.02 0 0 0 .26 1.5zm-4.92-3.99v-4.5H7.2a2.26 2.26 0 0 1 2.25 2.26 2.23 2.23 0 0 1-2.22 2.24h-2.6zm7.55-.16a4.69 4.69 0 0 0 4.54 4.83 4.7 4.7 0 0 0 4.57-4.83 4.7 4.7 0 0 0-4.57-4.82 4.68 4.68 0 0 0-4.55 4.82zm.36 0a4.34 4.34 0 0 1 4.18-4.47 4.36 4.36 0 0 1 4.2 4.47 4.38 4.38 0 0 1-4.2 4.47 4.37 4.37 0 0 1-4.19-4.47zm14.12 4.64a.04.04 0 0 1 .03.01h.04a.08.08 0 0 0 .05 0h.01a.12.12 0 0 0 .08-.09.01.01 0 0 0 .02-.01l3.77-8.98a.16.16 0 0 0-.1-.21.16.16 0 0 0-.2.08l-3.63 8.6-3.62-8.6a.2.2 0 0 0-.24-.08.16.16 0 0 0-.08.21l3.78 8.98a.13.13 0 0 0 .05.07l.04.02zm6.54.01h4.93a.17.17 0 0 0 .16-.17.15.15 0 0 0-.16-.16h-4.8v-4.17h4.23a.16.16 0 0 0 .16-.18.16.16 0 0 0-.16-.16h-4.23V6.07h4.8a.15.15 0 0 0 .16-.16.17.17 0 0 0-.16-.17h-4.97a.17.17 0 0 0-.16.17v9a.16.16 0 0 0 .16.16h.04z" data-name="Path 325"/>
    <g fill="#343434" data-name="Group 53">
      <path d="M56.64 16.43a5.12 5.12 0 0 1-5.12-5.1V5.01a.96.96 0 0 1 .97-.97.98.98 0 0 1 1 .97c0 .32 0 .63.02.93a.37.37 0 0 0-.13.29v.66h-.57a.51.51 0 0 0-.51.52v.13h-.18a.15.15 0 0 0-.14.14v1.5a.14.14 0 0 0 .14.15h.64a.14.14 0 0 0 .15-.14V7.7a.14.14 0 0 0-.15-.15h-.18v-.13a.23.23 0 0 1 .23-.24h.57v6.3a.37.37 0 0 0 .37.38h.29v.47a.24.24 0 0 0 .24.24h.64a.25.25 0 0 0 .25-.24v-.47h2.87v.47a.24.24 0 0 0 .24.25h.64a.25.25 0 0 0 .25-.25v-.47h.29a.37.37 0 0 0 .37-.37v-6.3h.57a.23.23 0 0 1 .23.23v.13h-.18a.14.14 0 0 0-.15.14v1.5a.14.14 0 0 0 .15.15h.63a.14.14 0 0 0 .15-.15V7.7a.15.15 0 0 0-.14-.15h-.18v-.13a.51.51 0 0 0-.51-.51h-.57v-.66a.37.37 0 0 0-.08-.23c.02-.32.04-.65.04-1a.98.98 0 0 1 1.96 0v6.3a5.12 5.12 0 0 1-5.11 5.12z" data-name="Subtraction 8"/>
      <path d="M41.96 16.78c.02 0 .02-.02.05-.02a.02.02 0 0 0 .02.02h3.14a3.8 3.8 0 0 0 3.78-3.81 3.8 3.8 0 0 0-1.78-3.2 3.33 3.33 0 0 0 .67-2.02 3.36 3.36 0 0 0-3.36-3.36h-2.52a.97.97 0 0 0-.97.97V15.8a.98.98 0 0 0 .97.97zm1-10.43h1.51a1.39 1.39 0 0 1 1.4 1.4 1.42 1.42 0 0 1-1.4 1.43h-1.52zm0 4.8h2.2A1.83 1.83 0 0 1 47 12.97a1.84 1.84 0 0 1-1.83 1.84h-2.2z" data-name="Path 262"/>
      <path d="M65.66 14.99a7.63 7.63 0 0 0 4.53 1.77 5.54 5.54 0 0 0 3.28-1.01A3.42 3.42 0 0 0 74.99 13a2.87 2.87 0 0 0-.43-1.5 4.13 4.13 0 0 0-1.77-1.47 10.41 10.41 0 0 0-2.44-.75h-.03a6.1 6.1 0 0 1-2.21-.78 1.7 1.7 0 0 1-.48-.46.86.86 0 0 1-.13-.5 1.4 1.4 0 0 1 .68-1.11 3.38 3.38 0 0 1 1.98-.6A5.13 5.13 0 0 1 73 6.97a.9.9 0 0 0 1.26-.26.91.91 0 0 0-.25-1.26 6.93 6.93 0 0 0-3.86-1.42 5.23 5.23 0 0 0-3.06.94 3.27 3.27 0 0 0-1.42 2.58 2.72 2.72 0 0 0 .4 1.45 3.8 3.8 0 0 0 1.65 1.39 9.58 9.58 0 0 0 2.29.69h.03a7.09 7.09 0 0 1 2.43.83 1.67 1.67 0 0 1 .53.53 1.01 1.01 0 0 1 .16.56 1.6 1.6 0 0 1-.77 1.28 3.81 3.81 0 0 1-2.2.65 5.77 5.77 0 0 1-3.39-1.36.92.92 0 0 0-1.3.12.94.94 0 0 0 .15 1.3z" data-name="Path 261"/>
    </g>
    <g fill="none" stroke="#343434" data-name="Rectangle 40">
      <path stroke="none" d="M0 0h80v20H0z"/>
      <path d="M.5.5h79v19H.5z"/>
    </g>
  </g>
</svg>